<svg xmlns="http://www.w3.org/2000/svg" viewBox="0 0 128 128" width="128" height="128">
  <defs>
    <linearGradient id="g" x1="0" x2="1" y1="0" y2="1">
      <stop offset="0" stop-color="#0ea5e9"/>
      <stop offset="1" stop-color="#6366f1"/>
    </linearGradient>
  </defs>
  <rect x="8" y="8" width="112" height="112" rx="16" fill="#0f172a"/>
  <g transform="translate(20,20)">
    <path d="M72 4H30a10 10 0 0 0-10 10v56a10 10 0 0 1 10-10h42v-56z" fill="url(#g)"/>
    <path d="M26 14h42v56H26a10 10 0 0 0-10 10V24a10 10 0 0 1 10-10z" fill="#38bdf8" opacity=".25"/>
    <path d="M36 22h22" stroke="#e2e8f0" stroke-width="4" stroke-linecap="round"/>
    <path d="M36 32h22" stroke="#e2e8f0" stroke-width="4" stroke-linecap="round"/>
    <path d="M36 42h18" stroke="#e2e8f0" stroke-width="4" stroke-linecap="round"/>
  </g>
</svg>
